<svg width="216.000000" height="52.000000" viewBox="0 0 216 52" fill="none" xmlns="http://www.w3.org/2000/svg" xmlns:xlink="http://www.w3.org/1999/xlink">
	<desc>
			Created with Pixso.
	</desc>
	<defs/>
	<path id="OJJO" d="M26.08 52Q32.01 52 36.94 49.78Q41.09 47.91 44.54 44.47Q48.19 40.84 50.1 36.44Q52.16 31.67 52.16 26Q52.16 20.24 50.03 15.43L50.03 15.43Q48.14 11.13 44.54 7.59Q41.03 4.05 36.78 2.16Q31.91 0 26.08 0Q20.33 0 15.49 2.1Q11.15 3.99 7.54 7.59Q4.05 11.07 2.17 15.27L2.17 15.27Q0 20.15 0 26Q0 31.76 2.11 36.6L2.11 36.6L2.11 36.6Q3.99 40.9 7.54 44.47Q11.08 47.97 15.34 49.84L15.34 49.84Q20.24 52 26.08 52ZM189.91 52C197.19 52 203.35 49.49 208.38 44.47C213.46 39.41 216 33.25 216 26C216 18.74 213.46 12.6 208.38 7.59C203.35 2.53 197.19 0 189.91 0C182.63 0 176.45 2.53 171.37 7.59C166.34 12.6 163.83 18.74 163.83 26C163.83 33.25 166.34 39.41 171.37 44.47C176.45 49.49 182.63 52 189.91 52ZM64.03 42.83C67 48.94 72.39 52 80.2 52C85.23 52 89.37 50.61 92.63 47.84C95.89 45.02 97.52 41.04 97.52 35.88L97.52 0.93L89.25 0.93L89.25 35.88C89.25 38.46 88.46 40.46 86.88 41.9C85.35 43.28 83.15 43.97 80.27 43.97C75.82 43.97 72.77 42.21 71.15 38.67L64.03 42.83ZM128.66 52C120.85 52 115.46 48.94 112.49 42.83L119.61 38.67C121.23 42.21 124.28 43.97 128.73 43.97C131.61 43.97 133.81 43.28 135.34 41.9C136.92 40.46 137.71 38.46 137.71 35.88L137.71 0.93L145.98 0.93L145.98 35.88C145.98 41.04 144.35 45.02 141.09 47.84C137.83 50.61 133.69 52 128.66 52ZM26.08 43.97Q21.79 43.97 18.27 42.33Q15.59 41.08 13.36 38.89Q11.37 36.88 10.16 34.48L10.16 34.48Q8.26 30.72 8.26 26Q8.26 21.2 10.22 17.42Q11.42 15.11 13.36 13.17Q15.66 10.88 18.43 9.61L18.43 9.61Q21.89 8.02 26.08 8.02Q30.35 8.02 33.84 9.67L33.84 9.67L33.84 9.67Q36.51 10.94 38.72 13.17Q40.76 15.17 41.99 17.58L41.99 17.58Q43.9 21.3 43.9 26Q43.9 30.61 42.05 34.31Q40.81 36.81 38.72 38.89Q36.58 41.03 34 42.27L34 42.27Q30.45 43.97 26.08 43.97ZM189.91 43.97C184.88 43.97 180.64 42.28 177.19 38.89C173.79 35.45 172.09 31.15 172.09 26C172.09 20.84 173.79 16.56 177.19 13.17C180.64 9.74 184.88 8.02 189.91 8.02C194.94 8.02 199.16 9.74 202.56 13.17C206.01 16.56 207.73 20.84 207.73 26C207.73 31.15 206.01 35.45 202.56 38.89C199.16 42.28 194.94 43.97 189.91 43.97Z" fill="#FFFFFF" fill-opacity="1.000000" fill-rule="evenodd"/>
	<path id="Vector" d="M36.13 23.93L36.12 23.88C36.11 23.81 36.09 23.75 36.06 23.69L33.12 18.42C33.12 18.42 32.74 17.9 32.66 17.9L20.12 17.9L16.35 23.51L16.31 23.56L16.3 23.59C16.27 23.64 16.24 23.7 16.22 23.77L16.21 23.82C16.17 23.98 16.17 24.15 16.21 24.31L16.23 24.36C16.26 24.43 16.29 24.49 16.32 24.55L25.43 37.4L25.45 37.43C25.5 37.49 25.55 37.55 25.62 37.61L25.68 37.64C25.73 37.68 25.78 37.71 25.86 37.74L25.91 37.76C26 37.79 26.08 37.8 26.16 37.8C26.23 37.8 26.31 37.79 26.41 37.76L26.47 37.73C26.53 37.71 26.58 37.68 26.65 37.63L26.69 37.61C26.76 37.55 26.82 37.49 26.85 37.44L35.97 24.58C36.05 24.46 36.11 24.32 36.13 24.17L36.13 24.1L36.14 24.05L36.13 23.93ZM31.23 23.59L32.53 20.97L33.83 23.59L31.23 23.59ZM30.45 25.14L33.54 25.14L28.4 32.38L30.45 25.14ZM29.69 22.8L27.82 19.97L31.1 19.97L29.69 22.8ZM23.68 25.14L28.63 25.14L26.16 33.86L23.68 25.14ZM24.17 23.59L26.16 20.59L28.14 23.59L24.17 23.59ZM22.78 22.57L21.92 19.97L24.5 19.97L22.78 22.57ZM23.91 32.38L18.78 25.14L21.86 25.14L23.91 32.38ZM20.43 20.99L21.29 23.59L18.71 23.59L20.43 20.99Z" fill="#FFFFFF" fill-opacity="1.000000" fill-rule="nonzero"/>
	<path id="Vector" d="M199.79 23.93L199.79 23.88C199.78 23.81 199.76 23.75 199.73 23.69L196.79 18.42C196.79 18.42 196.41 17.9 196.32 17.9L183.79 17.9L180.02 23.51L179.98 23.56L179.97 23.59C179.94 23.64 179.91 23.7 179.89 23.77L179.88 23.82C179.83 23.98 179.84 24.15 179.88 24.31L179.9 24.36C179.92 24.43 179.95 24.49 179.99 24.55L189.1 37.4L189.12 37.43C189.17 37.49 189.22 37.55 189.29 37.61L189.35 37.64C189.4 37.68 189.45 37.71 189.53 37.74L189.58 37.76C189.67 37.79 189.75 37.8 189.83 37.8C189.9 37.8 189.98 37.79 190.08 37.76L190.14 37.73C190.2 37.71 190.25 37.68 190.32 37.63L190.36 37.61C190.43 37.55 190.49 37.49 190.52 37.44L199.64 24.58C199.72 24.46 199.78 24.32 199.8 24.17L199.8 24.1L199.81 24.05L199.79 23.93ZM194.9 23.59L196.2 20.97L197.5 23.59L194.9 23.59ZM194.12 25.14L197.2 25.14L192.07 32.38L194.12 25.14ZM193.36 22.8L191.48 19.97L194.77 19.97L193.36 22.8ZM187.35 25.14L192.3 25.14L189.83 33.86L187.35 25.14ZM187.84 23.59L189.83 20.59L191.81 23.59L187.84 23.59ZM186.45 22.57L185.59 19.97L188.17 19.97L186.45 22.57ZM187.58 32.38L182.45 25.14L185.53 25.14L187.58 32.38ZM184.1 20.99L184.96 23.59L182.38 23.59L184.1 20.99Z" fill="#FFFFFF" fill-opacity="1.000000" fill-rule="nonzero"/>
</svg>
