<svg width="18.001686" height="18.001709" viewBox="0 0 18.0017 18.0017" fill="none" xmlns="http://www.w3.org/2000/svg" xmlns:xlink="http://www.w3.org/1999/xlink">
	<desc>
			Created with Pixso.
	</desc>
	<defs/>
	<path id="Vector" d="M18 16L12.84 10.84C13.8 9.39 14.18 7.64 13.91 5.93C13.65 4.22 12.76 2.66 11.42 1.57C10.07 0.47 8.37 -0.08 6.64 0C4.91 0.09 3.27 0.82 2.05 2.05C0.82 3.27 0.09 4.91 0 6.64C-0.08 8.37 0.47 10.07 1.57 11.42C2.66 12.76 4.22 13.65 5.93 13.91C7.64 14.18 9.39 13.8 10.84 12.84L16 18L18 16ZM2 7C2 4.24 4.24 2 7 2C9.75 2 12 4.24 12 7C12 9.75 9.75 12 7 12C4.24 12 2 9.75 2 7Z" fill="#FFFFFF" fill-opacity="1.000000" fill-rule="nonzero"/>
</svg>
